<?xml version="1.0" encoding="utf-8" ?>
<svg xmlns="http://www.w3.org/2000/svg" xmlns:xlink="http://www.w3.org/1999/xlink" width="164" height="82">
	<clipPath id="cl_3">
		<rect width="164" height="82"/>
	</clipPath>
	<g clip-path="url(#cl_3)">
		<path fill="#525151" transform="matrix(0.320312 0 0 0.320312 0 -41)" d="M354.321 185.658L354.758 185.613C364.958 184.651 378.653 186.612 386.556 193.116C400.591 204.665 403.006 228.447 393.36 243.468C391.721 246.02 389.633 248.372 387.713 250.721C417.048 253.55 428.827 284.6 424.422 310.283C422.48 321.609 403.932 317.574 395.064 317.547L374.62 317.504C370.176 317.504 356.938 318.531 353.444 315.427C351.237 313.468 352.116 306.988 353.979 305.199C356.687 302.598 370.131 303.536 374.242 303.553C377.328 303.491 380.398 303.453 383.484 303.553C384.38 299.008 383.197 290.065 386.198 286.697C389.5 282.992 394.353 283.826 397.634 287.025C401.616 290.907 400.105 297.592 400.11 302.69C402.356 302.654 409.882 304.717 411.075 302.515C415.583 294.196 409.658 281.299 403.954 274.672C394.361 263.525 385.562 263.653 372.003 263.506C365.283 263.433 345.025 264.238 339.829 262.74C336.254 261.709 330.471 255.294 325.897 252.785C329.605 252.898 333.195 251.946 336.672 250.721C335.099 248.405 333.13 246.452 331.31 244.338C314.542 224.849 327.959 189.449 354.321 185.658ZM360.177 197.092C325.523 200.927 328.955 248.311 364.054 248.494C399.932 242.227 392.561 195.271 360.177 197.092Z"/>
		<path fill="#525151" transform="matrix(0.320312 0 0 0.320312 0 -41)" d="M147 182.873C156.824 182.849 159.407 182.339 168.469 186.517C179.347 191.533 186.907 200.367 188.835 212.582C191.487 229.392 186.799 238.182 177.769 250.721C181.368 250.842 184.845 251.677 188.253 252.785C180.607 262.747 177.596 263.718 165.233 263.517C159.819 263.429 154.396 263.6 148.98 263.566C132.687 263.462 120.275 260.758 107.712 273.125C98.4931 282.199 99.0281 290.62 98.8838 302.69C102.887 302.742 107.037 303.018 111.023 302.69C112.422 298.779 112.428 289.494 114.339 287.06C116.992 283.68 122.935 283.968 125.953 286.613C130.045 290.198 128.87 297.061 129.071 301.936C130.156 301.809 131.234 301.889 132.322 301.936C138.642 302.791 160.324 301.322 162.97 305.318C164.874 308.194 163.877 314.167 160.642 315.819C156.639 317.864 129.475 316.611 123.422 316.603L103.062 316.589C98.5275 316.589 87.1842 318.142 84.9727 312.993C83.427 309.394 84.2503 291.614 85.0039 287.231C87.6165 272.038 98.3334 259.002 112.37 252.708C115.079 251.494 118.08 251.058 120.818 249.88L121.153 249.734C116.941 243.143 112.751 237.209 111.502 229.269C108.475 210.013 119.533 188.938 139.233 184.111C141.804 183.481 144.395 183.278 147 182.873ZM147 194.127C140.667 194.295 134.008 198.864 129.869 203.246C113.419 220.663 127.277 250.297 153.56 248.494C184.647 245.654 187.082 197.944 151.979 194.226C150.384 194.057 148.571 193.662 147 194.127Z"/>
		<path fill="#8B5DFF" transform="matrix(0.320312 0 0 0.320312 0 -41)" d="M253.294 165.601C292.033 162.844 317.313 207.747 297.366 239.446C294.651 243.761 291.246 247.687 288.1 251.694C318.619 252.311 341.462 278.421 342.537 308.306C342.761 314.546 344.501 330.931 339.768 335.755C336.522 339.063 329.153 338.073 324.945 338.052L262.375 338.039L208.765 338.04C202.609 338.041 181.328 338.734 176.786 337.261C167.065 334.109 174.188 293.997 177 286.982C183.402 271.015 195.043 261.065 210.609 255.079C214.775 253.477 219.286 252.67 223.347 250.873L223.684 250.721C215.935 242.069 209.437 234.693 208.238 222.498C205.228 191.875 222.12 168.764 253.294 165.601ZM229.671 266.453C217.915 267.035 206.523 272.079 198.594 280.897C186.649 294.183 188.234 307.457 188.253 323.784L203.13 323.784C202.904 319.293 202.657 306.516 203.545 302.637C204.937 296.561 211.991 294.235 216.512 298.471C220.83 302.516 220.026 318.24 219.506 323.784C241.89 323.403 264.345 323.785 286.737 323.784C289.906 323.77 293.085 323.837 296.252 323.784C295.886 317.95 295.366 302.854 298.787 298.919C301.841 295.405 307.624 295.536 310.912 298.648C315.009 302.525 313.275 318.235 313.346 323.784C318.123 323.747 322.981 324.081 327.739 323.784C327.446 318.856 327.883 313.919 327.687 308.985C326.964 290.822 314.208 272.399 296.097 267.853C286.678 265.489 268.699 266.508 258.451 266.449L240.243 266.437C236.809 266.424 233.065 265.974 229.671 266.453ZM250.368 180.648C205.438 189.445 216.608 254.315 261.032 248.494C269.947 247.405 276.849 242.754 282.363 235.73C301.49 211.365 280.997 176.657 250.368 180.648Z"/>
	</g>
</svg>
